<svg width="579" height="580" viewBox="0 0 579 580" fill="none" xmlns="http://www.w3.org/2000/svg">
<path d="M109.627 469.873C53.7551 414.001 25.8191 386.065 12.91 354.901C-4.30333 313.346 -4.30333 266.654 12.91 225.099C25.8191 193.935 53.7551 165.999 109.627 110.127C165.499 54.2551 193.435 26.3191 224.599 13.41C266.154 -3.80333 312.846 -3.80333 354.401 13.41C385.565 26.3191 413.501 54.2551 469.373 110.127C525.245 165.999 553.181 193.935 566.09 225.099C583.303 266.654 583.303 313.346 566.09 354.901C553.181 386.065 525.245 414.001 469.373 469.873C413.501 525.745 385.565 553.681 354.401 566.59C312.846 583.803 266.154 583.803 224.599 566.59C193.435 553.681 165.499 525.745 109.627 469.873Z" fill="#F5F8FF"/>
<path d="M50.3936 303.635C50.3936 301.086 49.4268 299.138 47.4932 297.79C45.5889 296.442 42.8057 295.769 39.1436 295.769V285.266C42.835 285.266 45.6328 284.621 47.5371 283.332C49.4414 282.043 50.3936 280.197 50.3936 277.795V277.443V263.469C50.3936 258.986 51.8145 255.837 54.6562 254.021C57.498 252.175 62.4932 251.252 69.6416 251.252V261.14C66.7412 261.228 64.7344 261.784 63.6211 262.81C62.5371 263.835 61.9951 265.344 61.9951 267.336V280.476C61.8193 285.983 58.3916 289.235 51.7119 290.231V290.759C58.5674 291.784 61.9951 294.89 61.9951 300.075V300.471V313.61C61.9951 315.603 62.5371 317.111 63.6211 318.137C64.7051 319.162 66.7119 319.719 69.6416 319.807V329.738C62.4932 329.738 57.498 328.815 54.6562 326.97C51.8145 325.153 50.3936 321.989 50.3936 317.478V303.635ZM528.562 317.478C528.562 320.759 527.962 323.234 526.761 324.904C525.56 326.574 523.567 327.79 520.784 328.552C518.03 329.343 514.207 329.738 509.314 329.738V319.807C512.215 319.748 514.207 319.221 515.291 318.225C516.404 317.229 516.961 315.69 516.961 313.61V300.471V299.987C516.961 297.468 517.825 295.432 519.554 293.879C521.282 292.297 523.831 291.257 527.2 290.759V290.231C520.55 289.235 517.137 285.983 516.961 280.476V267.336C516.961 265.285 516.419 263.762 515.335 262.766C514.251 261.77 512.244 261.228 509.314 261.14V251.252C514.207 251.252 518.045 251.647 520.828 252.438C523.611 253.2 525.589 254.431 526.761 256.13C527.962 257.8 528.562 260.246 528.562 263.469V277.443V277.883C528.562 280.344 529.456 282.189 531.243 283.42C533.06 284.65 535.916 285.266 539.812 285.266V295.769C536.15 295.769 533.353 296.369 531.419 297.57C529.515 298.771 528.562 300.793 528.562 303.635V317.478Z" fill="#6B7C93"/>
<path d="M118.377 279.772H122.771C127.078 279.772 130.257 279.055 132.308 277.619C134.358 276.184 135.384 273.928 135.384 270.852C135.384 267.805 134.329 265.637 132.22 264.348C130.14 263.059 126.902 262.414 122.508 262.414H118.377V279.772ZM118.377 290.847V315.5H104.754V251.252H123.475C132.205 251.252 138.665 252.849 142.854 256.042C147.044 259.206 149.139 264.025 149.139 270.5C149.139 274.279 148.099 277.648 146.019 280.607C143.938 283.537 140.994 285.837 137.186 287.507C146.854 301.95 153.152 311.281 156.082 315.5H140.965L125.628 290.847H118.377ZM201.17 315.5H164.168V251.252H201.17V262.414H177.791V276.521H199.544V287.683H177.791V304.25H201.17V315.5ZM252.542 297.658C252.542 303.459 250.447 308.029 246.258 311.369C242.098 314.709 236.297 316.379 228.855 316.379C222 316.379 215.936 315.09 210.662 312.512V299.855C214.998 301.789 218.66 303.151 221.648 303.942C224.666 304.733 227.42 305.129 229.91 305.129C232.898 305.129 235.184 304.558 236.766 303.415C238.377 302.272 239.183 300.573 239.183 298.317C239.183 297.058 238.831 295.944 238.128 294.978C237.425 293.981 236.385 293.029 235.008 292.121C233.66 291.213 230.892 289.763 226.702 287.771C222.776 285.925 219.832 284.152 217.869 282.453C215.906 280.754 214.339 278.776 213.167 276.521C211.995 274.265 211.409 271.628 211.409 268.61C211.409 262.927 213.328 258.459 217.166 255.207C221.033 251.955 226.365 250.329 233.162 250.329C236.502 250.329 239.681 250.725 242.698 251.516C245.745 252.307 248.924 253.42 252.234 254.855L247.84 265.446C244.412 264.04 241.57 263.059 239.314 262.502C237.088 261.945 234.891 261.667 232.723 261.667C230.145 261.667 228.167 262.268 226.79 263.469C225.413 264.67 224.725 266.237 224.725 268.171C224.725 269.372 225.003 270.427 225.56 271.335C226.116 272.214 226.995 273.078 228.196 273.928C229.427 274.748 232.312 276.242 236.854 278.41C242.859 281.281 246.976 284.167 249.202 287.067C251.429 289.938 252.542 293.469 252.542 297.658ZM288.973 315.5H275.35V262.59H257.903V251.252H306.419V262.59H288.973V315.5ZM313.362 309.216C313.362 306.755 314.021 304.895 315.34 303.635C316.658 302.375 318.577 301.745 321.097 301.745C323.528 301.745 325.403 302.39 326.722 303.679C328.069 304.968 328.743 306.813 328.743 309.216C328.743 311.53 328.069 313.361 326.722 314.709C325.374 316.027 323.499 316.687 321.097 316.687C318.636 316.687 316.731 316.042 315.384 314.753C314.036 313.435 313.362 311.589 313.362 309.216ZM313.362 272.917C313.362 270.456 314.021 268.596 315.34 267.336C316.658 266.076 318.577 265.446 321.097 265.446C323.528 265.446 325.403 266.091 326.722 267.38C328.069 268.669 328.743 270.515 328.743 272.917C328.743 275.29 328.055 277.136 326.678 278.454C325.33 279.743 323.47 280.388 321.097 280.388C318.636 280.388 316.731 279.743 315.384 278.454C314.036 277.165 313.362 275.319 313.362 272.917ZM381.302 315.5L376.644 300.207H353.221L348.562 315.5H333.885L356.561 250.988H373.216L395.979 315.5H381.302ZM373.392 288.781C369.085 274.924 366.653 267.087 366.097 265.271C365.569 263.454 365.188 262.019 364.954 260.964C363.987 264.714 361.219 273.986 356.648 288.781H373.392ZM417.732 281.486H422.215C426.404 281.486 429.539 280.666 431.619 279.025C433.699 277.355 434.739 274.938 434.739 271.774C434.739 268.581 433.86 266.223 432.103 264.699C430.374 263.176 427.649 262.414 423.929 262.414H417.732V281.486ZM448.494 271.291C448.494 278.205 446.326 283.493 441.99 287.155C437.684 290.817 431.546 292.648 423.577 292.648H417.732V315.5H404.109V251.252H424.632C432.425 251.252 438.343 252.937 442.386 256.306C446.458 259.646 448.494 264.641 448.494 271.291ZM460.623 315.5V251.252H474.246V315.5H460.623Z" fill="#03A1C4"/>
</svg>
