<?xml version="1.0" encoding="UTF-8"?><svg id="a" xmlns="http://www.w3.org/2000/svg" viewBox="0 0 225.15 201.11"><path d="M.1,104.7l-.1-8.93c4.8-12.64,14.77-19.71,26.44-24.93,2.87-1.29,5.73-2.61,8.65-3.78,3.97-1.58,10.12-2.02,11.45-4.8,1.54-3.23-1.21-8.45-1.94-12.84-2.1-12.54-2.96-25.05,3.15-36.93C52.53,3.22,63.03-1.65,73.22,.61c13.13,2.92,23.4,10.89,33.04,19.54,5.1,4.57,5.85,5.08,10.94,.44,6.52-5.95,13.31-11.53,21.26-15.56,7.27-3.68,14.88-6.07,23.03-4.6,10.66,1.93,19.17,12.13,19.52,25.72,1.01,4.78,1.01,9.78-.03,13.97-.86,6.08-1.23,12.29-2.74,18.21-1.03,4.04,1.06,5.63,3.72,5.93,3.87,.43,7.32,1.88,10.76,3.26,14.18,5.7,27.09,12.99,32.43,28.77l-.11,8.93c-4.39,11.83-13.77,18.59-24.6,23.66-6.29,2.95-12.77,5.58-19.37,7.73-3.1,1.01-3.35,2.24-2.64,4.9,2.59,9.67,4.16,19.47,3.74,29.54-.22,5.21-1.3,10.24-3.3,14.99-5.88,13.94-18.75,18.57-33.98,12.36-11.25-4.58-20.63-12.03-29.48-20.09-2.82-2.57-4.04-2.23-6.56,.18-9.53,9.09-19.59,17.47-32.81,20.85-16.6,4.24-29.1-3.89-31.98-20.71-2.03-11.88-.46-23.55,2.01-35.12,.95-4.43,.47-6.16-4.45-7.61C24.07,130.72,7.62,123.57,.1,104.7Zm117.11,25.5s-.08,7.3,7.22,7.02c1.25-.05,2.5-.03,3.74,.04,5.27,.31,8.99-7.2,8.99-7.2l-19.96,.15Zm-9.03-.2l-19.92,.34,11.82,6.91,3.44-.02,4.66-7.23Zm38.92-41.09c-1.17-3.17-3.05-5.95-4.92-8.73m-24.94,.18c0,2.85,0,5.7-.01,8.55m-.02,33.06l24.95,.16s3.69-5.28,4.7-8.74c-7.38,0-14.3,0-21.23,0-8.58,0-8.41,8.58-8.41,8.58Zm-38-32.9s9.98-.03,12.81-.13c6.8-.25,16.16,.21,16.16,.21v-9.03s-11.19,1.31-18.16,.82c-1.44-.1-6.75-.53-6.75-.53l-4.06,8.66Zm.03,24.17l4.01,8.68,24.93,.23,.05-8.96M8.36,100.03c.46,5.66,3.57,9.69,7.74,12.95,8.91,6.97,19.33,10.89,29.86,14.55,2.98,1.04,4.33-.66,5.23-3.07,6.76-18.1,14.96-35.5,24.91-52.07,.87-1.44,1.67-2.96,.45-4.62-1.29-1.76-3.07-1.71-4.96-1.31-7.46,1.6-15.02,2.86-22.38,4.83-11.9,3.19-23.63,6.95-33.2,15.27-4.13,3.6-7.1,7.89-7.66,13.46Zm208.62,1.19c-.37-5.42-3.33-9.36-7.3-12.58-8.94-7.24-19.52-11.19-30.21-14.92-3.26-1.14-4.49,.87-5.46,3.44-6.78,17.9-14.83,35.19-24.73,51.59-.87,1.45-1.69,2.96-.55,4.63,1.24,1.81,3.03,1.73,4.92,1.38,9.79-1.82,19.56-3.74,29.06-6.77,9.36-2.98,18.55-6.42,26.13-12.98,4.24-3.66,7.59-7.93,8.13-13.8Zm-43.85-66.62c.12-5.73-.66-11.3-3.09-16.5-3.44-7.36-9.24-10.1-17.14-7.97-12.27,3.31-21.57,11.42-30.8,19.53-1.84,1.62-1.17,3.63,.25,5.33,12.42,14.99,23.35,31,33.04,47.87,2,3.49,5.16,3.21,6.56-.57,5.7-15.43,10.58-31.07,11.19-47.69ZM52.24,163.87c-.02,10.41,1.26,16.39,3.87,20.76,3.38,5.66,10.3,8.12,16.64,6.33,11.99-3.37,21.16-11.33,30.33-19.22,2.08-1.79,1.32-3.87-.22-5.73-12.32-14.91-23.25-30.77-32.84-47.57-2.02-3.54-5.2-3.34-6.6,.46-5.65,15.3-10.55,30.79-11.18,44.98Zm1.07-131.13c.35,7.3,1.29,14.52,2.46,21.74,.67,4.16,2.68,5.14,6.54,4.45,18.02-3.19,36.18-4.86,54.5-4.81,1.81,0,3.79,.34,4.89-1.64,1.25-2.24-.3-3.77-1.57-5.29-6.83-8.17-13.91-16.11-22-23.06-7.8-6.7-15.99-12.74-26.6-14.52-6.91-1.16-13.73,2.77-16.11,9.36-1.6,4.44-2.19,9.06-2.11,13.77Zm119.75,134.45c.21-7.15-1.3-13.85-2.03-20.62-.51-4.67-2.78-6.26-7.36-5.42-18.05,3.28-36.26,4.8-54.61,4.79-1.69,0-3.37,0-4.32,1.8-.98,1.85,.05,3.13,1.15,4.46,8.06,9.79,16.52,19.19,26.52,27.05,6.98,5.49,14.4,10.19,23.52,11.28,7.02,.84,12.48-2.33,14.98-8.93,1.79-4.72,2.43-9.66,2.16-14.41ZM91.7,97.04c-5.14,0-14.68-.1-14.68-.1,0,0-2.97,1.72-3,4-.03,2.15,3,3,3,3,0,0,19.1,1.26,29.21,1.36,3.72,.04,2.61-2.54,2.75-4.47,.15-2.05,.3-3.97-2.86-3.84-4.8,.2-9.61,.05-14.41,.05Zm45.87,8.2c4.04-.09,8.08,.07,12.12,.08,3.07,0,3.78-1.87,3.71-4.38-.07-2.76-1.21-4.51-5.54-3.79-8.47,1.41-17.08,1.5-25.55,.05-5.91-1.01-5.19,1.46-5.14,3.92,.03,2.04-.72,4.4,2.93,4.22,5.81-.3,11.64,.04,17.46-.09Zm-48.93-33.06c5.84,0,11.13-.13,16.41,.05,2.85,.1,4.12-.47,4.07-3.74-.05-3.26-1.47-3.61-4.32-3.35-2.24,.21-4.5,.14-6.74-.07-4.99-.46-7.82,1.93-9.41,7.11Zm48.69,0c-1.76-4.9-4.09-7.83-9.66-7.02-2.44,.36-4.92,.31-7.37-.01-3.42-.45-3.21,1.45-3.12,3.42,.08,1.7-.64,3.74,2.44,3.65,5.74-.15,11.49-.04,17.71-.04Z" style="fill:#042d4b;"/><path d="M8.36,100.03c.56-5.57,3.53-9.87,7.66-13.46,9.56-8.33,21.3-12.09,33.2-15.27,7.36-1.97,14.92-3.23,22.38-4.83,1.89-.41,3.67-.45,4.96,1.31,1.22,1.66,.42,3.18-.45,4.62-9.95,16.57-18.15,33.97-24.91,52.07-.9,2.41-2.25,4.11-5.23,3.07-10.53-3.67-20.96-7.58-29.86-14.55-4.17-3.26-7.28-7.29-7.74-12.95Z" style="fill:#fb4054;"/><path d="M216.98,101.22c-.54,5.87-3.89,10.14-8.13,13.8-7.59,6.55-16.77,10-26.13,12.98-9.5,3.02-19.27,4.95-29.06,6.77-1.9,.35-3.69,.43-4.92-1.38-1.14-1.67-.32-3.18,.55-4.63,9.89-16.41,17.95-33.7,24.73-51.59,.97-2.57,2.2-4.58,5.46-3.44,10.69,3.73,21.28,7.69,30.21,14.92,3.98,3.22,6.94,7.16,7.3,12.58Z" style="fill:#fb4054;"/><path d="M173.13,34.6c-.61,16.62-5.49,32.27-11.19,47.69-1.4,3.79-4.56,4.06-6.56,.57-9.7-16.87-20.62-32.88-33.04-47.87-1.41-1.71-2.09-3.71-.25-5.33,9.24-8.12,18.54-16.23,30.8-19.53,7.9-2.13,13.71,.61,17.14,7.97,2.43,5.21,3.22,10.77,3.09,16.5Z" style="fill:#fb4054;"/><path d="M52.24,163.87c.62-14.18,5.53-29.68,11.18-44.98,1.4-3.79,4.58-4,6.6-.46,9.59,16.8,20.52,32.66,32.84,47.57,1.54,1.86,2.3,3.94,.22,5.73-9.33,8.04-18.67,16.14-30.99,19.4-7.32,1.94-12.63-.45-16.3-7.06-2.4-4.32-3.57-10.23-3.55-20.21Z" style="fill:#fb4054;"/><path d="M53.31,32.74c-.07-4.53,.47-8.97,1.93-13.25,2.75-8.07,8.73-11.33,17.12-9.73,10.21,1.95,18.17,7.85,25.77,14.37,8.09,6.95,15.17,14.89,22,23.06,1.27,1.52,2.81,3.05,1.57,5.29-1.1,1.98-3.08,1.64-4.89,1.64-18.31-.04-36.48,1.62-54.5,4.81-3.86,.68-5.87-.3-6.54-4.45-1.17-7.22-2.12-14.44-2.46-21.74Z" style="fill:#fb4054;"/><path d="M173.06,167.19c.27,4.76-.37,9.7-2.16,14.41-2.5,6.6-7.96,9.77-14.98,8.93-9.12-1.09-16.53-5.79-23.52-11.28-10.01-7.86-18.46-17.27-26.52-27.05-1.09-1.33-2.13-2.61-1.15-4.46,.95-1.8,2.64-1.8,4.32-1.8,18.34,0,36.56-1.51,54.61-4.79,4.58-.83,6.86,.76,7.36,5.42,.74,6.77,2.24,13.46,2.03,20.62Z" style="fill:#fb4054;"/><path d="M92.7,97.04c4.81,0,9.62,.14,14.41-.05,3.16-.13,3.01,1.79,2.86,3.84-.14,1.93,.97,4.51-2.75,4.47-10.11-.11-20.22-.07-30.33-.02-.88-.34-3.53-2.17-3.5-4.32,.03-2.28,2.62-4.02,3.89-3.97,5.13,.15,10.27,.04,15.41,.04Z" style="fill:#fbd74c;"/><path d="M134.53,105.27c-4.81,0-9.63-.18-14.42,.06-3.65,.19-2.9-2.18-2.93-4.22-.03-2.11-.57-4.23,3-4.15,9.78,.21,19.56,.16,29.34,.02,2.97-.04,3.82,1.59,3.88,3.95,.07,2.57-.69,4.48-3.95,4.37-4.97-.16-9.95-.04-14.92-.04Z" style="fill:#fbd74c;"/><path d="M83.24,121.93c-1.23-2.98-3.23-4.98-4.01-8.68l28.98-.05c1.22,2.99,1.32,5.98-.05,8.96-8.31-.08-16.62-.16-24.93-.23Z" style="fill:#eecd4c;"/><polygon points="108.18 80.13 108.17 89.16 79.21 89.08 83.27 80.41 108.18 80.13" style="fill:#eecd4c;"/><path d="M117.2,121.97q-.17-8.58,8.41-8.58c6.93,0,13.85,0,21.23,0-1.01,3.47-2.82,6.12-4.7,8.74-8.32-.05-16.63-.11-24.95-.16Z" style="fill:#eecd4c;"/><path d="M117.22,88.91c0-2.85,0-5.7,.01-8.55,8.31-.06,16.63-.12,24.94-.18,1.86,2.78,3.75,5.56,4.92,8.73-9.96,0-19.91,0-29.87,0Z" style="fill:#eecd4c;"/><path d="M108.17,130l-.16,6.94s-2.83,.28-4.5,.28c-1.15,0-2.32-.14-3.44,.02-5.82,.87-8.06-1.31-11.82-6.91,6.64-.11,19.92-.34,19.92-.34Z" style="fill:#fbd74c;"/><path d="M88.63,72.18c1.61-5.27,4.51-7.65,9.66-7.09,2.29,.25,4.63,.17,6.94,0,2.56-.18,3.83,.3,3.88,3.39,.05,3.27-1.22,3.84-4.07,3.74-5.28-.19-10.57-.05-16.41-.05Z" style="fill:#fbd74c;"/><path d="M137.32,72.18c-6.21,0-11.96-.11-17.71,.04-3.08,.08-2.37-1.95-2.44-3.65-.08-1.87-.28-3.68,2.63-3.47,2.8,.2,5.65,.28,8.44,0,5.15-.53,7.39,2.37,9.08,7.09Z" style="fill:#fbd74c;"/><path d="M137.16,130.06c-.99,5.06-3.83,7.72-9.21,7.19-1.3-.13-2.62-.02-3.93-.02q-6.89,0-6.81-7.02c6.65-.05,13.31-.1,19.96-.15Z" style="fill:#fbd74c;"/><path d="M117.22,88.91s19.91,0,29.87,0" style="fill:#00184b;"/><line x1="79.21" y1="89.08" x2="108.17" y2="89.16" style="fill:#00184b;"/><line x1="108.22" y1="113.2" x2="79.23" y2="113.25" style="fill:#00184b;"/><line x1="108.18" y1="80.13" x2="83.27" y2="80.41" style="fill:#00184b;"/><line x1="142.18" y1="80.18" x2="117.24" y2="80.36" style="fill:#00184b;"/><path d="M83.24,121.93l24.93,.23-24.93-.23Z" style="fill:#00184b;"/><path d="M117.2,121.97l24.95,.16-24.95-.16Z" style="fill:#00184b;"/><path d="M108.17,130l-19.92,.34,19.92-.34Z" style="fill:#00184b;"/><path d="M137.16,130.06l-19.96,.15,19.96-.15Z" style="fill:#00184b;"/><path d="M181.01,26.16c.46,4.66,.44,9.31-.03,13.97,.03-4.19,1.03-9.19,.03-13.97Z" style="fill:#00184b;"/></svg>